<svg version="1.1" id="Layer_1" xmlns="http://www.w3.org/2000/svg" xmlns:xlink="http://www.w3.org/1999/xlink" x="0px" y="0px"
	 width="100%" viewBox="0 0 6437 6437" enable-background="new 0 0 6437 6437" xml:space="preserve">
<path fill="#2C3370" opacity="1.000000" stroke="none" 
	d="
M6444.000000,3004.000000 
	C6444.000000,3148.083496 6444.000000,3292.167236 6442.427246,3438.325195 
	C6435.985352,3444.335693 6437.049805,3449.998291 6436.625488,3455.185547 
	C6433.475586,3493.661865 6431.502441,3532.275391 6426.988770,3570.589844 
	C6420.448730,3626.105713 6412.510254,3681.469238 6404.387207,3736.782959 
	C6394.320801,3805.327393 6380.859863,3873.270996 6365.351562,3940.776611 
	C6336.388672,4066.845459 6300.653320,4190.935059 6256.800293,4312.702637 
	C6228.564453,4391.106934 6197.612793,4468.384766 6163.491211,4544.366699 
	C6131.002930,4616.710449 6095.506348,4687.596191 6057.803711,4757.395020 
	C6018.193848,4830.724121 5975.393555,4902.129395 5930.205078,4972.112305 
	C5871.607422,5062.861328 5808.468262,5150.348145 5740.912109,5234.664062 
	C5686.729980,5302.287598 5630.222656,5367.887695 5570.537598,5430.687500 
	C5538.410645,5464.490723 5505.888672,5497.990234 5472.205078,5530.226562 
	C5427.459473,5573.049805 5382.359375,5615.603516 5335.638184,5656.233887 
	C5290.928223,5695.115723 5244.349121,5731.893066 5197.878418,5768.694336 
	C5121.551758,5829.139160 5041.758789,5884.806152 4959.649414,5937.067871 
	C4836.968750,6015.153320 4709.716309,6084.919434 4577.617188,6145.882812 
	C4499.534668,6181.917969 4420.187012,6214.789551 4339.577148,6244.649414 
	C4211.981445,6291.914062 4081.568848,6329.742188 3949.062744,6360.469238 
	C3882.893799,6375.812500 3816.174072,6388.399902 3749.172363,6399.449219 
	C3714.371094,6405.188477 3679.482910,6410.494141 3644.516846,6415.109375 
	C3615.490723,6418.941406 3586.317871,6421.731934 3557.165283,6424.516113 
	C3526.030762,6427.489258 3494.859619,6430.118164 3463.674561,6432.509766 
	C3441.773926,6434.189453 3419.821289,6435.189941 3397.897217,6436.576660 
	C3394.607910,6436.784180 3391.064697,6436.817383 3388.174072,6438.120117 
	C3386.283203,6438.971191 3385.357666,6441.965332 3384.000000,6444.000000 
	C3279.916504,6444.000000 3175.832764,6444.000000 3069.756592,6442.386719 
	C3064.611328,6436.191406 3059.687256,6436.696289 3055.120361,6436.578613 
	C3015.158691,6435.548828 2975.347168,6432.455078 2935.593262,6428.355469 
	C2903.812988,6425.077637 2871.893799,6422.964355 2840.214844,6418.932129 
	C2797.305908,6413.470215 2754.544922,6406.818359 2711.760986,6400.406738 
	C2638.631592,6389.448242 2566.129639,6375.049805 2494.173584,6358.180176 
	C2359.810059,6326.679199 2227.681152,6287.570801 2098.449951,6238.943359 
	C2007.372681,6204.672852 1917.840454,6166.762207 1830.133423,6124.597656 
	C1744.217896,6083.293945 1660.466187,6037.952148 1578.566895,5989.170898 
	C1478.291138,5929.443848 1381.465942,5864.580566 1288.417725,5794.120605 
	C1216.154419,5739.400879 1146.142578,5681.953613 1078.527466,5621.537598 
	C1014.889526,5564.675781 953.635315,5505.376953 894.824097,5443.598633 
	C851.197327,5397.770508 808.976379,5350.626465 768.108154,5302.280273 
	C726.803284,5253.416992 686.771606,5203.532715 648.577393,5152.230957 
	C593.253052,5077.920410 540.806885,5001.620605 492.022736,4922.800781 
	C428.146332,4819.595703 369.447906,4713.621094 317.592346,4603.842285 
	C282.002869,4528.499023 249.166733,4452.013672 219.420715,4374.189941 
	C182.050308,4276.418457 149.568085,4177.060059 122.018929,4076.069824 
	C102.378456,4004.071777 84.630470,3931.622314 70.845963,3858.284668 
	C60.148800,3801.372803 50.677700,3744.225830 41.131416,3687.104736 
	C37.511929,3665.447510 34.847599,3643.611328 32.390430,3621.784180 
	C28.891016,3590.699219 25.795513,3559.564697 22.879574,3528.418701 
	C20.274605,3500.593994 17.874491,3472.744141 15.889647,3444.869141 
	C14.093247,3419.640869 13.028442,3394.360840 11.491057,3369.112793 
	C11.336587,3366.575928 10.626343,3363.780273 9.250760,3361.721924 
	C8.445359,3360.516602 5.811375,3360.532959 4.000015,3360.000000 
	C4.000000,3351.833252 4.000000,3343.666748 5.475869,3333.473633 
	C14.631172,3322.383545 12.549334,3312.557129 8.850941,3302.811523 
	C8.336633,3301.455811 5.670200,3300.916992 3.999998,3300.000000 
	C4.000000,3249.249756 4.000000,3198.499512 5.428566,3145.347168 
	C10.712980,3140.604004 11.519265,3136.769287 11.478685,3132.760010 
	C11.405944,3125.572266 11.059422,3118.387695 10.923655,3109.381348 
	C11.544674,3056.915039 14.550563,3006.406250 19.438845,2956.002686 
	C23.873194,2910.279541 27.440260,2864.448975 33.035934,2818.867920 
	C38.713627,2772.618408 45.267467,2726.412109 53.497368,2680.556396 
	C64.437492,2619.600098 76.028481,2558.696777 89.742950,2498.316406 
	C114.552292,2389.089355 145.313614,2281.470459 181.887405,2175.542969 
	C219.545990,2066.473877 262.571259,1959.631348 311.592102,1855.133179 
	C347.000519,1779.652588 385.247009,1705.692139 426.309601,1633.189575 
	C483.179535,1532.776367 545.640747,1435.922974 613.001465,1342.204346 
	C692.071716,1232.194336 777.766907,1127.595337 870.354919,1028.763428 
	C942.362427,951.899902 1017.304993,877.966919 1096.569824,808.450806 
	C1151.209106,760.531677 1207.122803,714.228333 1264.604492,669.794678 
	C1361.741333,594.707275 1462.969727,525.560791 1568.475220,462.811462 
	C1615.996582,434.548157 1664.430176,407.791840 1712.825684,381.031433 
	C1775.847900,346.183136 1840.924805,315.392334 1906.487427,285.697388 
	C1968.406128,257.652863 2031.423096,232.201065 2095.031738,208.203049 
	C2179.246338,176.430832 2264.766602,148.631653 2351.401367,124.344872 
	C2438.651367,99.885582 2526.640137,78.342064 2615.848389,62.192741 
	C2660.392090,54.129051 2705.051270,46.642796 2749.782227,39.694237 
	C2785.297119,34.177311 2820.953125,29.485460 2856.635254,25.155895 
	C2885.710205,21.627998 2914.883057,18.775953 2944.073975,16.368961 
	C2971.274658,14.126058 2998.559814,12.919608 3025.798340,11.112144 
	C3029.718506,10.851997 3033.709229,10.144551 3037.407959,8.883313 
	C3038.679199,8.449783 3039.158936,5.694600 3040.000000,4.000016 
	C3164.083496,4.000000 3288.167236,4.000000 3414.327148,5.566424 
	C3420.693848,8.513910 3424.957520,10.998252 3429.278809,11.102294 
	C3465.266602,11.968761 3501.017334,15.584095 3536.769531,19.414591 
	C3567.866943,22.746391 3599.131592,24.768057 3630.099121,29.003208 
	C3683.506348,36.307270 3736.884277,44.035797 3790.013184,53.116173 
	C3872.074951,67.141541 3953.419434,84.888214 4033.958008,105.928398 
	C4124.191895,129.501450 4213.489746,156.240677 4301.445801,187.486343 
	C4400.718262,222.751984 4498.207520,262.266144 4593.467285,307.193939 
	C4685.102051,350.411896 4774.921875,397.126831 4862.058594,448.920258 
	C4942.858398,496.947510 5021.899902,547.652954 5098.239746,602.529846 
	C5164.261230,649.989807 5228.441895,699.782776 5290.989258,751.768005 
	C5346.872559,798.214600 5400.945312,846.674072 5453.445801,896.805542 
	C5493.413574,934.969727 5531.459961,975.167175 5569.893555,1014.911865 
	C5614.367676,1060.903076 5656.116699,1109.332764 5697.383789,1158.217651 
	C5752.015625,1222.935669 5803.555176,1290.019531 5852.559082,1359.030273 
	C5916.636230,1449.269531 5976.026367,1542.522461 6030.387695,1638.979492 
	C6076.213867,1720.292114 6118.850098,1803.216187 6157.492188,1888.159912 
	C6213.566895,2011.422485 6261.476562,2137.838379 6301.570312,2267.175049 
	C6325.245117,2343.544434 6346.156250,2420.689941 6363.838867,2498.686523 
	C6379.007324,2565.594971 6392.787598,2632.790771 6403.331055,2700.588135 
	C6409.876465,2742.677979 6415.695801,2784.897217 6420.896484,2827.174561 
	C6425.445312,2864.154541 6428.822266,2901.282715 6432.428223,2938.373291 
	C6434.231445,2956.919434 6435.336426,2975.532471 6436.896484,2994.103271 
	C6437.113281,2996.683350 6437.662598,2999.479492 6438.958984,3001.634277 
	C6439.753418,3002.955811 6442.261230,3003.246582 6444.000000,3004.000000 
M5405.085449,1323.506348 
	C5403.190430,1324.700928 5401.295898,1325.895508 5396.547852,1327.739746 
	C5390.485352,1330.471069 5384.410645,1333.176270 5378.361816,1335.938354 
	C5356.569824,1345.889648 5335.281250,1357.199463 5312.871094,1365.473999 
	C5286.557617,1375.189819 5261.529297,1387.440918 5236.260254,1399.322021 
	C5222.413574,1405.832031 5208.479004,1412.155762 5194.631836,1418.663574 
	C5174.162598,1428.283691 5153.700684,1437.921265 5133.300781,1447.686768 
	C5117.694824,1455.157227 5102.109375,1462.677734 5086.653809,1470.452148 
	C5036.731445,1495.564209 4986.873047,1520.803101 4936.992676,1545.999390 
	C4936.399414,1546.298950 4935.850586,1546.685913 4935.276367,1547.023315 
	C4893.387695,1571.633423 4848.796387,1591.413330 4808.104980,1618.165527 
	C4806.997070,1618.893799 4805.815430,1619.583374 4804.572266,1620.021118 
	C4788.092773,1625.827148 4773.944336,1635.987183 4758.917480,1644.489990 
	C4734.605469,1658.246094 4709.532227,1670.884277 4686.332031,1686.325317 
	C4644.742188,1714.005371 4599.421387,1735.675903 4559.487305,1765.931152 
	C4557.375000,1767.531372 4554.963867,1768.736084 4552.703613,1770.143188 
	C4538.598633,1778.924561 4524.307617,1787.424072 4510.428223,1796.548828 
	C4465.952148,1825.787964 4420.839844,1854.146118 4377.460938,1884.941284 
	C4330.255859,1918.453857 4283.237793,1952.250732 4236.109375,1985.883911 
	C4230.700684,1989.743652 4225.839355,1994.359741 4220.574219,1998.431885 
	C4207.944336,2008.200684 4195.245605,2017.880981 4182.530273,2027.538330 
	C4178.823242,2030.354126 4174.824219,2032.795288 4171.197754,2035.706177 
	C4128.107910,2070.295654 4085.043945,2104.917969 4042.026123,2139.597656 
	C4035.807129,2144.611328 4029.498535,2149.604980 4023.877930,2155.251465 
	C4012.573486,2166.607422 4000.956055,2177.439209 3987.535889,2186.384766 
	C3980.949951,2190.774902 3975.385498,2196.722412 3969.463135,2202.080322 
	C3940.368408,2228.402588 3911.307373,2254.762451 3882.237549,2281.112549 
	C3875.351074,2287.354736 3868.317383,2293.445312 3861.625244,2299.889893 
	C3834.778320,2325.743408 3808.051758,2351.721924 3781.238525,2377.610352 
	C3778.848877,2379.917969 3776.069336,2381.817871 3773.624756,2384.073730 
	C3769.723633,2387.673584 3765.820312,2391.287598 3762.150879,2395.119141 
	C3753.400391,2404.256348 3744.960938,2413.696289 3736.084961,2422.707764 
	C3707.140869,2452.094238 3678.221436,2481.483398 3651.005615,2512.523682 
	C3633.035156,2533.019531 3613.887207,2552.425537 3596.338135,2573.371338 
	C3581.846680,2590.667969 3564.872559,2605.858643 3552.292969,2624.885986 
	C3549.393066,2629.272461 3545.007812,2632.648193 3541.576904,2636.717529 
	C3531.715332,2648.415283 3521.920898,2660.171631 3512.253662,2672.030273 
	C3508.894775,2676.150391 3506.142334,2680.760742 3502.843018,2684.934082 
	C3485.091064,2707.390137 3466.665039,2729.341553 3449.611572,2752.313477 
	C3432.589111,2775.243652 3412.246582,2795.794434 3399.181641,2821.613770 
	C3398.291748,2823.372559 3396.877930,2824.874756 3395.653076,2826.454102 
	C3380.969727,2845.390381 3367.787109,2865.310303 3354.500244,2885.262939 
	C3334.590576,2915.161133 3314.953613,2945.184814 3295.605225,2975.455566 
	C3278.726807,3001.861816 3262.612061,3028.583740 3247.837891,3056.192383 
	C3240.619141,3069.682129 3232.308594,3082.583252 3224.711182,3095.876221 
	C3219.429443,3105.117920 3214.305664,3114.464111 3209.493164,3123.957275 
	C3201.375488,3139.969727 3193.603027,3156.156982 3185.609619,3172.232666 
	C3176.424072,3190.705566 3166.631348,3208.896973 3158.055908,3227.646729 
	C3147.268311,3251.233398 3137.458008,3275.266846 3127.201416,3299.096924 
	C3123.781250,3307.043457 3119.811035,3314.788330 3116.902832,3322.915283 
	C3103.007812,3361.742432 3089.106201,3400.572266 3075.791016,3439.600098 
	C3068.705811,3460.366943 3062.397461,3481.424561 3056.505615,3502.564697 
	C3052.043701,3518.573730 3049.021729,3534.978516 3044.966797,3551.108398 
	C3031.157715,3606.037598 3019.799072,3661.456055 3012.706055,3717.657471 
	C3005.099854,3777.927979 3002.828125,3838.511230 3005.081055,3899.191650 
	C3006.365967,3933.796875 3009.110596,3968.326416 3014.344971,4002.635986 
	C3020.581299,4043.512695 3029.648438,4083.736084 3040.133789,4125.969727 
	C3041.264160,4128.070801 3042.394531,4130.171875 3044.291260,4135.233398 
	C3047.916992,4147.355957 3051.373535,4159.532715 3055.212891,4171.587402 
	C3059.647217,4185.510742 3063.524170,4199.708496 3069.245117,4213.103027 
	C3078.915527,4235.744141 3091.200439,4257.334473 3099.903320,4280.307129 
	C3110.899658,4309.335449 3128.373779,4334.395996 3144.270752,4360.497559 
	C3147.378418,4365.600586 3151.354980,4370.256348 3153.888184,4375.611328 
	C3160.510498,4389.608887 3169.560059,4401.879883 3179.330811,4413.726562 
	C3184.418457,4419.895508 3190.124512,4425.709473 3194.276123,4432.467285 
	C3206.585205,4452.502930 3223.420410,4468.677734 3238.496582,4486.383301 
	C3254.934326,4505.687988 3272.883301,4523.415039 3291.148438,4540.901855 
	C3299.324463,4548.729980 3306.280518,4558.143066 3315.350098,4564.669434 
	C3341.820801,4583.719727 3363.122559,4609.218750 3391.894775,4625.357422 
	C3397.054688,4628.251465 3401.202148,4632.898438 3406.027832,4636.450195 
	C3418.352295,4645.520020 3430.661377,4654.622070 3443.240723,4663.330078 
	C3450.890381,4668.625977 3458.957275,4673.336914 3466.963135,4678.098145 
	C3493.253174,4693.732910 3517.694336,4712.540039 3546.394287,4724.067871 
	C3551.903564,4726.280273 3556.830811,4729.926758 3562.064941,4732.843750 
	C3585.318359,4745.801270 3608.358398,4759.158691 3633.246582,4768.923828 
	C3644.386719,4773.295410 3655.290771,4778.265625 3666.330566,4782.896484 
	C3693.940918,4794.479004 3721.287598,4806.763184 3749.273193,4817.356445 
	C3773.513916,4826.532227 3798.480713,4833.791992 3823.139648,4841.859375 
	C3833.782715,4845.340332 3844.458008,4848.723145 3856.859375,4852.710449 
	C3857.227295,4845.199219 3857.760498,4839.384277 3857.760986,4833.569336 
	C3857.785645,4592.907715 3857.747314,4352.246094 3857.749268,4111.584473 
	C3857.752930,3662.260498 3857.769775,3212.936768 3857.860107,2763.612793 
	C3857.861328,2757.036133 3858.882080,2750.459473 3863.249512,2743.994141 
	C3990.504639,2743.999268 4117.759766,2744.010986 4245.014648,2744.008057 
	C4398.919922,2744.004639 4552.825684,2744.010498 4706.730957,2743.919189 
	C4715.294434,2743.914062 4724.125488,2745.397949 4734.935547,2740.568359 
	C4739.160156,2739.074951 4743.384277,2737.581787 4750.391113,2735.362549 
	C4771.890625,2728.560547 4785.623535,2712.186523 4799.378418,2695.773193 
	C4810.010254,2683.086182 4816.133301,2668.601807 4816.895996,2652.080566 
	C4817.633301,2636.113037 4818.282715,2620.124512 4818.303223,2604.144287 
	C4818.416992,2516.848633 4818.297852,2429.552979 4818.308594,2342.257324 
	C4818.332031,2147.008301 4818.374023,1951.759033 4818.458008,1756.509888 
	C4818.461426,1747.912842 4818.957031,1739.316162 4819.190430,1731.777100 
	C4842.323242,1713.584717 4864.265137,1696.301270 4886.255859,1679.080200 
	C4888.338379,1677.449585 4890.799316,1676.311768 4892.963379,1674.774780 
	C4905.977539,1665.531006 4918.887207,1656.138428 4931.968262,1646.989990 
	C4943.393066,1638.999512 4955.002930,1631.274170 4966.519043,1623.413330 
	C4970.916016,1620.411621 4975.327637,1617.427124 4979.648438,1614.317749 
	C4993.703125,1604.205078 5007.035156,1592.879272 5021.885254,1584.124146 
	C5056.874023,1563.496460 5087.562988,1536.194946 5124.449219,1518.582153 
	C5127.413086,1517.166870 5129.874023,1514.729980 5132.669434,1512.924194 
	C5157.816406,1496.679199 5181.962891,1478.868164 5208.876953,1465.395874 
	C5217.765625,1460.946533 5225.870605,1454.932617 5234.340820,1449.645752 
	C5244.507812,1443.299927 5254.522461,1436.690186 5264.884766,1430.680420 
	C5293.672363,1413.984619 5322.591797,1397.515259 5351.494629,1381.019287 
	C5356.697266,1378.049927 5362.070801,1375.380615 5367.363770,1372.569580 
	C5390.277344,1360.400024 5413.199219,1348.245483 5436.099121,1336.050781 
	C5445.497070,1331.046265 5454.419922,1324.782715 5464.314453,1321.155640 
	C5482.594727,1314.454834 5499.035645,1304.400269 5518.137695,1295.570435 
	C5519.729492,1294.333252 5521.321777,1293.096069 5523.731934,1291.883667 
	C5523.731934,1291.883667 5524.309570,1291.303101 5526.298340,1291.481934 
	C5527.832031,1290.270752 5529.365723,1289.059448 5531.711426,1287.857178 
	C5531.711426,1287.857178 5532.258789,1287.257446 5535.024902,1286.934082 
	C5543.962402,1282.548584 5552.559570,1277.168945 5561.902832,1273.967773 
	C5587.805664,1265.093018 5611.573730,1251.799683 5638.666504,1239.381592 
	C5645.797363,1235.318848 5654.301758,1233.236084 5661.973633,1222.871216 
	C5647.528809,1225.761230 5637.294434,1229.279053 5625.077148,1236.297485 
	C5592.828613,1248.773438 5560.575195,1261.237915 5528.348633,1273.770020 
	C5527.166016,1274.229858 5526.241211,1275.353027 5524.286133,1276.073975 
	C5524.286133,1276.073975 5523.537598,1276.600830 5520.983887,1276.380005 
	C5515.726562,1278.970703 5510.468750,1281.561401 5504.281738,1284.111694 
	C5504.281738,1284.111694 5503.547363,1284.682739 5501.512695,1284.380981 
	C5499.889648,1285.553467 5498.266602,1286.725952 5496.007812,1287.756836 
	C5496.007812,1287.756836 5495.586914,1288.253662 5493.013672,1288.094116 
	C5487.848145,1290.815430 5482.682617,1293.536621 5476.400879,1296.314575 
	C5476.400879,1296.314575 5475.493164,1296.965820 5473.564453,1296.690308 
	C5472.012695,1297.801636 5470.460938,1298.912964 5468.133789,1299.927734 
	C5468.133789,1299.927734 5467.542969,1300.439331 5465.418945,1300.126831 
	C5463.712402,1301.301514 5462.006348,1302.476196 5459.786621,1303.438232 
	C5459.786621,1303.438232 5459.509766,1303.920044 5457.162109,1303.614258 
	C5454.496094,1305.116699 5451.829590,1306.619141 5448.243164,1308.080078 
	C5448.243164,1308.080078 5447.512695,1308.640503 5445.471191,1308.346436 
	C5443.835938,1309.514404 5442.200684,1310.682495 5439.952637,1311.699341 
	C5439.952637,1311.699341 5439.544922,1312.181396 5437.249512,1311.900269 
	C5434.591309,1313.332397 5431.932617,1314.764404 5428.291504,1316.126343 
	C5428.291504,1316.126343 5427.458496,1316.652222 5425.214355,1316.278442 
	C5422.514160,1317.565186 5419.814453,1318.851807 5416.239746,1320.020874 
	C5416.239746,1320.020874 5415.503906,1320.507202 5413.379883,1320.111450 
	C5411.647949,1321.245117 5409.916504,1322.378784 5407.680664,1323.301025 
	C5407.680664,1323.301025 5407.426758,1323.784790 5405.085449,1323.506348 
M1722.830688,2742.255859 
	C1731.408691,2742.842041 1739.986572,2743.937012 1748.564819,2743.941162 
	C2026.067749,2744.074219 2303.570801,2744.102295 2580.192627,2746.782715 
	C2557.457031,2775.453125 2534.690186,2804.098877 2512.007568,2832.811035 
	C2506.260254,2840.086182 2500.627686,2847.462402 2495.212646,2854.986816 
	C2486.286621,2867.389893 2477.545898,2879.927246 2468.792236,2892.453613 
	C2461.182861,2903.342529 2453.542480,2914.213379 2446.147461,2925.247559 
	C2441.349365,2932.406982 2437.064941,2939.908691 2432.378906,2947.145996 
	C2421.533203,2963.895752 2410.229736,2980.360352 2399.788330,2997.356201 
	C2391.451904,3010.925293 2384.105469,3025.103027 2376.337158,3039.020508 
	C2365.651123,3058.165039 2354.734863,3077.186523 2344.353027,3096.494873 
	C2318.852539,3143.921143 2294.167969,3191.757568 2273.376709,3241.496338 
	C2272.099121,3244.552979 2270.164307,3247.331543 2268.839600,3250.372070 
	C2260.085449,3270.460449 2251.170410,3290.484619 2242.804932,3310.734863 
	C2237.483398,3323.616699 2233.104004,3336.884521 2228.150635,3349.921631 
	C2217.296631,3378.488525 2206.345459,3407.018311 2193.814941,3436.797852 
	C2193.696533,3438.080078 2193.578369,3439.362305 2192.662842,3443.257568 
	C2192.086914,3445.928223 2191.510742,3448.598877 2189.212891,3452.486572 
	C2189.143066,3453.826416 2189.073242,3455.166504 2188.396973,3458.848633 
	C2188.078125,3460.429688 2187.759277,3462.010742 2185.627197,3465.236084 
	C2185.229980,3467.562988 2184.832520,3469.889893 2183.965088,3473.945557 
	C2183.965088,3473.945557 2183.587891,3475.697266 2181.806152,3477.346680 
	C2181.352539,3479.638184 2180.899170,3481.929443 2179.950195,3485.934570 
	C2179.950195,3485.934570 2179.553467,3487.673828 2177.728271,3489.286377 
	C2177.275146,3491.583008 2176.822021,3493.879639 2175.881592,3497.890381 
	C2175.881592,3497.890381 2175.467041,3499.623535 2173.583496,3501.186035 
	C2173.145752,3503.499023 2172.707764,3505.811768 2171.430908,3511.008057 
	C2164.714844,3532.492676 2157.998779,3553.977539 2149.614014,3576.689941 
	C2149.522217,3577.998291 2149.430664,3579.306641 2148.586182,3583.234131 
	C2147.988037,3585.892578 2147.389893,3588.551270 2145.061035,3592.413330 
	C2144.994873,3593.757080 2144.928711,3595.101074 2144.150635,3599.557129 
	C2139.418457,3620.218018 2134.656006,3640.872070 2129.960449,3661.541260 
	C2119.537842,3707.421387 2109.148682,3753.309326 2097.084717,3800.518555 
	C2097.125000,3801.868408 2097.165527,3803.218262 2096.656494,3807.494385 
	C2096.081787,3811.421875 2095.507080,3815.349365 2093.296631,3820.624512 
	C2093.356445,3821.963867 2093.416504,3823.302979 2092.838379,3827.998047 
	C2090.397949,3847.752197 2088.313721,3867.557861 2085.451904,3887.250732 
	C2075.810791,3953.591309 2067.435059,4020.062256 2063.177979,4087.001221 
	C2061.704590,4110.165039 2060.007812,4133.314941 2057.130615,4158.329102 
	C2056.188232,4161.478027 2055.888184,4164.826660 2059.900391,4165.442871 
	C2061.065918,4165.622070 2062.974365,4162.458008 2064.128662,4160.573242 
	C2064.686279,4159.663086 2064.284424,4158.165039 2064.186035,4153.594727 
	C2065.468994,4147.077637 2066.643066,4140.536621 2068.052734,4134.046875 
	C2076.934082,4093.156250 2083.992676,4051.752441 2095.241455,4011.521484 
	C2110.609131,3956.559082 2128.326172,3902.201416 2146.703857,3848.151855 
	C2157.373779,3816.771729 2171.310303,3786.501953 2185.554932,3754.156738 
	C2186.167480,3751.978760 2186.780029,3749.800781 2187.855225,3745.902588 
	C2187.855225,3745.902588 2188.343994,3744.189453 2190.141113,3742.524414 
	C2190.557617,3740.218994 2190.974121,3737.913574 2191.992432,3732.727051 
	C2194.639648,3725.908691 2197.078369,3719.000977 2199.968994,3712.287354 
	C2214.697266,3678.080566 2234.004395,3645.953369 2246.193115,3610.584961 
	C2246.836914,3608.716309 2248.008057,3607.030273 2248.926514,3605.255371 
	C2265.132324,3573.938965 2281.323242,3542.614502 2297.561523,3511.314941 
	C2299.399414,3507.772217 2301.601562,3504.419678 2303.466553,3500.890137 
	C2318.697998,3472.062500 2338.092529,3445.578613 2351.359619,3415.630615 
	C2353.497314,3410.805664 2356.757568,3406.463867 2359.625244,3401.979492 
	C2367.874512,3389.079590 2376.544678,3376.434326 2384.401611,3363.301514 
	C2400.125977,3337.018066 2415.102783,3310.283447 2433.731689,3285.842773 
	C2436.942383,3281.630615 2439.864502,3277.016602 2441.958008,3272.172363 
	C2446.508301,3261.643555 2453.051025,3252.547363 2460.143311,3243.664062 
	C2465.537598,3236.907715 2470.714844,3229.894043 2475.217041,3222.523926 
	C2498.849365,3183.838867 2529.445801,3150.051025 2553.125732,3111.411865 
	C2553.816895,3110.284180 2554.782959,3109.327637 2555.593018,3108.270264 
	C2570.970947,3088.196045 2585.928955,3067.783203 2601.808594,3048.114502 
	C2631.505371,3011.331543 2661.743408,2974.985840 2691.733887,2938.439941 
	C2694.687988,2934.840088 2697.406250,2931.045898 2700.372070,2927.456299 
	C2709.268066,2916.689453 2717.904785,2905.684326 2727.235840,2895.305664 
	C2749.464355,2870.580811 2769.597900,2843.998535 2793.454346,2820.710693 
	C2796.273193,2817.959229 2798.154785,2814.267090 2800.612305,2811.121094 
	C2803.479736,2807.450684 2806.149658,2803.527100 2809.515869,2800.362793 
	C2826.513916,2784.382812 2841.706543,2766.787354 2857.355225,2749.530762 
	C2873.846680,2731.344238 2891.574463,2714.193115 2908.404541,2696.190674 
	C2931.553223,2671.428955 2956.656738,2648.500000 2980.783936,2624.644775 
	C2991.196045,2614.350342 3000.902100,2603.323975 3011.552246,2593.291504 
	C3037.697998,2568.661377 3064.224854,2544.436279 3090.546875,2519.992920 
	C3094.448486,2516.369629 3097.924072,2512.286133 3101.844971,2508.685547 
	C3126.819336,2485.754395 3151.842041,2462.876221 3176.916748,2440.055420 
	C3179.364990,2437.827393 3182.345703,2436.195801 3184.955322,2434.130371 
	C3189.131104,2430.825684 3193.648193,2427.804443 3197.248291,2423.943115 
	C3222.794434,2396.542969 3253.028564,2374.425537 3281.550537,2350.536377 
	C3333.580566,2306.957764 3385.569092,2263.220215 3440.312500,2222.966553 
	C3446.739258,2218.240967 3452.628906,2212.788574 3458.812988,2207.728760 
	C3466.543213,2201.403809 3473.736816,2194.171631 3482.201172,2189.047363 
	C3499.399414,2178.635986 3514.360352,2165.435303 3530.085449,2153.166504 
	C3536.910400,2147.841553 3543.720703,2142.444336 3550.931885,2137.676270 
	C3584.799561,2115.281982 3615.742188,2088.877930 3649.944580,2066.822998 
	C3671.672607,2052.812256 3691.863525,2036.348633 3713.713623,2022.232178 
	C3741.058350,2004.565796 3766.618164,1984.325928 3794.863770,1967.776489 
	C3818.316406,1954.035278 3839.749512,1936.964355 3863.272217,1922.994629 
	C3890.667480,1906.725098 3915.590332,1886.413208 3944.383057,1872.268066 
	C3948.544922,1870.223633 3952.327393,1867.406128 3956.283203,1864.942505 
	C3998.644531,1838.560913 4041.001221,1812.172119 4083.374268,1785.809326 
	C4086.199219,1784.051758 4088.987549,1782.083008 4092.056885,1780.895508 
	C4110.212891,1773.872192 4125.903320,1762.455566 4142.604980,1752.843872 
	C4162.764160,1741.242310 4181.726562,1727.489136 4203.638184,1719.021484 
	C4206.710449,1717.834229 4209.518066,1715.908691 4212.356445,1714.174683 
	C4240.748535,1696.828979 4269.272461,1679.749878 4299.920898,1666.522705 
	C4306.002441,1663.898315 4311.592285,1660.149048 4317.464355,1657.022217 
	C4339.768555,1645.144897 4362.073242,1633.268555 4384.421387,1621.474487 
	C4399.592773,1613.467773 4416.198242,1607.934204 4429.825195,1593.154907 
	C4425.246094,1592.676270 4420.669434,1591.811890 4416.087891,1591.788696 
	C4400.090332,1591.707642 4384.090820,1592.004395 4368.092285,1592.004028 
	C3514.132568,1591.990356 2660.172852,1591.959717 1806.213257,1591.939209 
	C1785.547729,1591.938599 1764.881592,1591.964844 1744.216797,1592.114746 
	C1736.934814,1592.167603 1729.464355,1591.498901 1719.893677,1596.083984 
	C1702.118408,1598.395630 1687.761230,1607.210815 1673.718872,1618.007812 
	C1648.426270,1637.454834 1637.659668,1663.282959 1636.563354,1694.094482 
	C1636.161011,1705.403564 1636.376465,1716.736084 1636.376465,1728.057861 
	C1636.376343,2024.427124 1636.384277,2320.796387 1636.396362,2617.165527 
	C1636.396729,2624.491211 1636.515015,2631.817383 1636.486206,2639.142822 
	C1636.390137,2663.543457 1644.421143,2685.001709 1660.906372,2702.849854 
	C1673.962769,2716.986084 1687.078125,2731.468994 1709.473511,2737.503906 
	C1712.973145,2738.538330 1716.472656,2739.572510 1722.830688,2742.255859 
z"/>

<path fill="#141836" opacity="1.000000" stroke="none" 
	d="
M3.999998,3301.776611 
	C5.670200,3300.916992 8.336633,3301.455811 8.850941,3302.811523 
	C12.549334,3312.557129 14.631172,3322.383545 5.475869,3331.723633 
	C4.000000,3322.517822 4.000000,3313.035400 3.999998,3301.776611 
z"/>
<path fill="#141836" opacity="1.000000" stroke="none" 
	d="
M3.999990,3113.776367 
	C5.525761,3111.869141 7.051541,3111.738525 9.702321,3111.404785 
	C11.059422,3118.387695 11.405944,3125.572266 11.478685,3132.760010 
	C11.519265,3136.769287 10.712980,3140.604004 5.428566,3143.472656 
	C4.000000,3134.517822 4.000000,3125.035400 3.999990,3113.776367 
z"/>
<path fill="#FFFFFF" opacity="1.000000" stroke="none" 
	d="
M1707.183838,2735.934570 
	C1687.078125,2731.468994 1673.962769,2716.986084 1660.906372,2702.849854 
	C1644.421143,2685.001709 1636.390137,2663.543457 1636.486206,2639.142822 
	C1636.515015,2631.817383 1636.396729,2624.491211 1636.396362,2617.165527 
	C1636.384277,2320.796387 1636.376343,2024.427124 1636.376465,1728.057861 
	C1636.376465,1716.736084 1636.161011,1705.403564 1636.563354,1694.094482 
	C1637.659668,1663.282959 1648.426270,1637.454834 1673.718872,1618.007812 
	C1687.761230,1607.210815 1702.118408,1598.395630 1723.339844,1596.230591 
	C1773.418335,1596.271606 1820.050659,1596.074463 1866.683105,1596.073853 
	C2652.791260,1596.064209 3438.899658,1596.091431 4225.007812,1596.066162 
	C4292.949219,1596.063965 4360.891113,1595.749268 4428.832520,1595.579712 
	C4416.198242,1607.934204 4399.592773,1613.467773 4384.421387,1621.474487 
	C4362.073242,1633.268555 4339.768555,1645.144897 4317.464355,1657.022217 
	C4311.592285,1660.149048 4306.002441,1663.898315 4299.920898,1666.522705 
	C4269.272461,1679.749878 4240.748535,1696.828979 4212.356445,1714.174683 
	C4209.518066,1715.908691 4206.710449,1717.834229 4203.638184,1719.021484 
	C4181.726562,1727.489136 4162.764160,1741.242310 4142.604980,1752.843872 
	C4125.903320,1762.455566 4110.212891,1773.872192 4092.056885,1780.895508 
	C4088.987549,1782.083008 4086.199219,1784.051758 4083.374268,1785.809326 
	C4041.001221,1812.172119 3998.644531,1838.560913 3956.283203,1864.942505 
	C3952.327393,1867.406128 3948.544922,1870.223633 3944.383057,1872.268066 
	C3915.590332,1886.413208 3890.667480,1906.725098 3863.272217,1922.994629 
	C3839.749512,1936.964355 3818.316406,1954.035278 3794.863770,1967.776489 
	C3766.618164,1984.325928 3741.058350,2004.565796 3713.713623,2022.232178 
	C3691.863525,2036.348633 3671.672607,2052.812256 3649.944580,2066.822998 
	C3615.742188,2088.877930 3584.799561,2115.281982 3550.931885,2137.676270 
	C3543.720703,2142.444336 3536.910400,2147.841553 3530.085449,2153.166504 
	C3514.360352,2165.435303 3499.399414,2178.635986 3482.201172,2189.047363 
	C3473.736816,2194.171631 3466.543213,2201.403809 3458.812988,2207.728760 
	C3452.628906,2212.788574 3446.739258,2218.240967 3440.312500,2222.966553 
	C3385.569092,2263.220215 3333.580566,2306.957764 3281.550537,2350.536377 
	C3253.028564,2374.425537 3222.794434,2396.542969 3197.248291,2423.943115 
	C3193.648193,2427.804443 3189.131104,2430.825684 3184.955322,2434.130371 
	C3182.345703,2436.195801 3179.364990,2437.827393 3176.916748,2440.055420 
	C3151.842041,2462.876221 3126.819336,2485.754395 3101.844971,2508.685547 
	C3097.924072,2512.286133 3094.448486,2516.369629 3090.546875,2519.992920 
	C3064.224854,2544.436279 3037.697998,2568.661377 3011.552246,2593.291504 
	C3000.902100,2603.323975 2991.196045,2614.350342 2980.783936,2624.644775 
	C2956.656738,2648.500000 2931.553223,2671.428955 2908.404541,2696.190674 
	C2891.574463,2714.193115 2873.846680,2731.344238 2857.355225,2749.530762 
	C2841.706543,2766.787354 2826.513916,2784.382812 2809.515869,2800.362793 
	C2806.149658,2803.527100 2803.479736,2807.450684 2800.612305,2811.121094 
	C2798.154785,2814.267090 2796.273193,2817.959229 2793.454346,2820.710693 
	C2769.597900,2843.998535 2749.464355,2870.580811 2727.235840,2895.305664 
	C2717.904785,2905.684326 2709.268066,2916.689453 2700.372070,2927.456299 
	C2697.406250,2931.045898 2694.687988,2934.840088 2691.733887,2938.439941 
	C2661.743408,2974.985840 2631.505371,3011.331543 2601.808594,3048.114502 
	C2585.928955,3067.783203 2570.970947,3088.196045 2555.593018,3108.270264 
	C2554.782959,3109.327637 2553.816895,3110.284180 2553.125732,3111.411865 
	C2529.445801,3150.051025 2498.849365,3183.838867 2475.217041,3222.523926 
	C2470.714844,3229.894043 2465.537598,3236.907715 2460.143311,3243.664062 
	C2453.051025,3252.547363 2446.508301,3261.643555 2441.958008,3272.172363 
	C2439.864502,3277.016602 2436.942383,3281.630615 2433.731689,3285.842773 
	C2415.102783,3310.283447 2400.125977,3337.018066 2384.401611,3363.301514 
	C2376.544678,3376.434326 2367.874512,3389.079590 2359.625244,3401.979492 
	C2356.757568,3406.463867 2353.497314,3410.805664 2351.359619,3415.630615 
	C2338.092529,3445.578613 2318.697998,3472.062500 2303.466553,3500.890137 
	C2301.601562,3504.419678 2299.399414,3507.772217 2297.561523,3511.314941 
	C2281.323242,3542.614502 2265.132324,3573.938965 2248.926514,3605.255371 
	C2248.008057,3607.030273 2246.836914,3608.716309 2246.193115,3610.584961 
	C2234.004395,3645.953369 2214.697266,3678.080566 2199.968994,3712.287354 
	C2197.078369,3719.000977 2194.639648,3725.908691 2190.780762,3734.979004 
	C2189.160645,3739.550537 2188.752441,3741.870117 2188.343994,3744.189453 
	C2188.343994,3744.189453 2187.855225,3745.902588 2186.659180,3747.466797 
	C2184.900879,3751.264648 2184.338867,3753.498779 2183.776855,3755.732666 
	C2171.310303,3786.501953 2157.373779,3816.771729 2146.703857,3848.151855 
	C2128.326172,3902.201416 2110.609131,3956.559082 2095.241455,4011.521484 
	C2083.992676,4051.752441 2076.934082,4093.156250 2068.052734,4134.046875 
	C2066.643066,4140.536621 2065.468994,4147.077637 2062.731201,4155.718750 
	C2060.321777,4157.385254 2059.367188,4156.928223 2058.412842,4156.471191 
	C2060.007812,4133.314941 2061.704590,4110.165039 2063.177979,4087.001221 
	C2067.435059,4020.062256 2075.810791,3953.591309 2085.451904,3887.250732 
	C2088.313721,3867.557861 2090.397949,3847.752197 2093.963867,3825.648438 
	C2095.037109,3821.958252 2094.984619,3820.617676 2094.932129,3819.276855 
	C2095.507080,3815.349365 2096.081787,3811.421875 2097.750977,3805.362793 
	C2098.812256,3801.885742 2098.779297,3800.539795 2098.746094,3799.194092 
	C2109.148682,3753.309326 2119.537842,3707.421387 2129.960449,3661.541260 
	C2134.656006,3640.872070 2139.418457,3620.218018 2145.344727,3597.375244 
	C2146.623047,3593.865479 2146.707275,3592.537598 2146.791504,3591.209717 
	C2147.389893,3588.551270 2147.988037,3585.892578 2149.820312,3581.338623 
	C2151.130371,3578.116211 2151.206543,3576.789062 2151.282715,3575.462158 
	C2157.998779,3553.977539 2164.714844,3532.492676 2172.719482,3508.721680 
	C2174.494385,3504.164551 2174.980713,3501.894043 2175.467041,3499.623535 
	C2175.467041,3499.623535 2175.881592,3497.890381 2177.025879,3496.215088 
	C2178.631104,3492.251221 2179.092285,3489.962402 2179.553223,3487.673828 
	C2179.553467,3487.673828 2179.950195,3485.934570 2181.108887,3484.265869 
	C2182.707520,3480.297119 2183.147705,3477.997314 2183.587891,3475.697266 
	C2183.587891,3475.697266 2183.965088,3473.945557 2185.093750,3472.241699 
	C2186.628662,3468.222412 2187.034424,3465.906982 2187.440430,3463.591797 
	C2187.759277,3462.010742 2188.078125,3460.429688 2189.562012,3457.069336 
	C2190.796143,3453.949707 2190.865479,3452.609619 2190.934570,3451.269531 
	C2191.510742,3448.598877 2192.086914,3445.928223 2193.917480,3441.382324 
	C2195.259277,3438.192627 2195.346680,3436.877930 2195.434082,3435.563232 
	C2206.345459,3407.018311 2217.296631,3378.488525 2228.150635,3349.921631 
	C2233.104004,3336.884521 2237.483398,3323.616699 2242.804932,3310.734863 
	C2251.170410,3290.484619 2260.085449,3270.460449 2268.839600,3250.372070 
	C2270.164307,3247.331543 2272.099121,3244.552979 2273.376709,3241.496338 
	C2294.167969,3191.757568 2318.852539,3143.921143 2344.353027,3096.494873 
	C2354.734863,3077.186523 2365.651123,3058.165039 2376.337158,3039.020508 
	C2384.105469,3025.103027 2391.451904,3010.925293 2399.788330,2997.356201 
	C2410.229736,2980.360352 2421.533203,2963.895752 2432.378906,2947.145996 
	C2437.064941,2939.908691 2441.349365,2932.406982 2446.147461,2925.247559 
	C2453.542480,2914.213379 2461.182861,2903.342529 2468.792236,2892.453613 
	C2477.545898,2879.927246 2486.286621,2867.389893 2495.212646,2854.986816 
	C2500.627686,2847.462402 2506.260254,2840.086182 2512.007568,2832.811035 
	C2534.690186,2804.098877 2557.457031,2775.453125 2581.526855,2745.152344 
	C2583.959229,2742.469482 2584.093506,2741.305908 2583.268555,2738.963379 
	C2575.414307,2737.313965 2567.555420,2736.225830 2559.695801,2736.222412 
	C2303.464111,2736.117432 2047.232544,2736.121826 1791.000854,2736.093506 
	C1763.061890,2736.090332 1735.122803,2735.989746 1707.183838,2735.934570 
z"/>
<path fill="#FFFFFF" opacity="1.000000" stroke="none" 
	d="
M3859.427002,2743.882812 
	C3858.882080,2750.459473 3857.861328,2757.036133 3857.860107,2763.612793 
	C3857.769775,3212.936768 3857.752930,3662.260498 3857.749268,4111.584473 
	C3857.747314,4352.246094 3857.785645,4592.907715 3857.760986,4833.569336 
	C3857.760498,4839.384277 3857.227295,4845.199219 3856.859375,4852.710449 
	C3844.458008,4848.723145 3833.782715,4845.340332 3823.139648,4841.859375 
	C3798.480713,4833.791992 3773.513916,4826.532227 3749.273193,4817.356445 
	C3721.287598,4806.763184 3693.940918,4794.479004 3666.330566,4782.896484 
	C3655.290771,4778.265625 3644.386719,4773.295410 3633.246582,4768.923828 
	C3608.358398,4759.158691 3585.318359,4745.801270 3562.064941,4732.843750 
	C3556.830811,4729.926758 3551.903564,4726.280273 3546.394287,4724.067871 
	C3517.694336,4712.540039 3493.253174,4693.732910 3466.963135,4678.098145 
	C3458.957275,4673.336914 3450.890381,4668.625977 3443.240723,4663.330078 
	C3430.661377,4654.622070 3418.352295,4645.520020 3406.027832,4636.450195 
	C3401.202148,4632.898438 3397.054688,4628.251465 3391.894775,4625.357422 
	C3363.122559,4609.218750 3341.820801,4583.719727 3315.350098,4564.669434 
	C3306.280518,4558.143066 3299.324463,4548.729980 3291.148438,4540.901855 
	C3272.883301,4523.415039 3254.934326,4505.687988 3238.496582,4486.383301 
	C3223.420410,4468.677734 3206.585205,4452.502930 3194.276123,4432.467285 
	C3190.124512,4425.709473 3184.418457,4419.895508 3179.330811,4413.726562 
	C3169.560059,4401.879883 3160.510498,4389.608887 3153.888184,4375.611328 
	C3151.354980,4370.256348 3147.378418,4365.600586 3144.270752,4360.497559 
	C3128.373779,4334.395996 3110.899658,4309.335449 3099.903320,4280.307129 
	C3091.200439,4257.334473 3078.915527,4235.744141 3069.245117,4213.103027 
	C3063.524170,4199.708496 3059.647217,4185.510742 3055.212891,4171.587402 
	C3051.373535,4159.532715 3047.916992,4147.355957 3044.150391,4132.541016 
	C3042.888672,4127.751953 3041.767578,4125.654785 3040.646484,4123.558105 
	C3029.648438,4083.736084 3020.581299,4043.512695 3014.344971,4002.635986 
	C3009.110596,3968.326416 3006.365967,3933.796875 3005.081055,3899.191650 
	C3002.828125,3838.511230 3005.099854,3777.927979 3012.706055,3717.657471 
	C3019.799072,3661.456055 3031.157715,3606.037598 3044.966797,3551.108398 
	C3049.021729,3534.978516 3052.043701,3518.573730 3056.505615,3502.564697 
	C3062.397461,3481.424561 3068.705811,3460.366943 3075.791016,3439.600098 
	C3089.106201,3400.572266 3103.007812,3361.742432 3116.902832,3322.915283 
	C3119.811035,3314.788330 3123.781250,3307.043457 3127.201416,3299.096924 
	C3137.458008,3275.266846 3147.268311,3251.233398 3158.055908,3227.646729 
	C3166.631348,3208.896973 3176.424072,3190.705566 3185.609619,3172.232666 
	C3193.603027,3156.156982 3201.375488,3139.969727 3209.493164,3123.957275 
	C3214.305664,3114.464111 3219.429443,3105.117920 3224.711182,3095.876221 
	C3232.308594,3082.583252 3240.619141,3069.682129 3247.837891,3056.192383 
	C3262.612061,3028.583740 3278.726807,3001.861816 3295.605225,2975.455566 
	C3314.953613,2945.184814 3334.590576,2915.161133 3354.500244,2885.262939 
	C3367.787109,2865.310303 3380.969727,2845.390381 3395.653076,2826.454102 
	C3396.877930,2824.874756 3398.291748,2823.372559 3399.181641,2821.613770 
	C3412.246582,2795.794434 3432.589111,2775.243652 3449.611572,2752.313477 
	C3466.665039,2729.341553 3485.091064,2707.390137 3502.843018,2684.934082 
	C3506.142334,2680.760742 3508.894775,2676.150391 3512.253662,2672.030273 
	C3521.920898,2660.171631 3531.715332,2648.415283 3541.576904,2636.717529 
	C3545.007812,2632.648193 3549.393066,2629.272461 3552.292969,2624.885986 
	C3564.872559,2605.858643 3581.846680,2590.667969 3596.338135,2573.371338 
	C3613.887207,2552.425537 3633.035156,2533.019531 3651.005615,2512.523682 
	C3678.221436,2481.483398 3707.140869,2452.094238 3736.084961,2422.707764 
	C3744.960938,2413.696289 3753.400391,2404.256348 3762.150879,2395.119141 
	C3765.820312,2391.287598 3769.723633,2387.673584 3773.624756,2384.073730 
	C3776.069336,2381.817871 3778.848877,2379.917969 3781.238525,2377.610352 
	C3808.051758,2351.721924 3834.778320,2325.743408 3861.625244,2299.889893 
	C3868.317383,2293.445312 3875.351074,2287.354736 3882.237549,2281.112549 
	C3911.307373,2254.762451 3940.368408,2228.402588 3969.463135,2202.080322 
	C3975.385498,2196.722412 3980.949951,2190.774902 3987.535889,2186.384766 
	C4000.956055,2177.439209 4012.573486,2166.607422 4023.877930,2155.251465 
	C4029.498535,2149.604980 4035.807129,2144.611328 4042.026123,2139.597656 
	C4085.043945,2104.917969 4128.107910,2070.295654 4171.197754,2035.706177 
	C4174.824219,2032.795288 4178.823242,2030.354126 4182.530273,2027.538330 
	C4195.245605,2017.880981 4207.944336,2008.200684 4220.574219,1998.431885 
	C4225.839355,1994.359741 4230.700684,1989.743652 4236.109375,1985.883911 
	C4283.237793,1952.250732 4330.255859,1918.453857 4377.460938,1884.941284 
	C4420.839844,1854.146118 4465.952148,1825.787964 4510.428223,1796.548828 
	C4524.307617,1787.424072 4538.598633,1778.924561 4552.703613,1770.143188 
	C4554.963867,1768.736084 4557.375000,1767.531372 4559.487305,1765.931152 
	C4599.421387,1735.675903 4644.742188,1714.005371 4686.332031,1686.325317 
	C4709.532227,1670.884277 4734.605469,1658.246094 4758.917480,1644.489990 
	C4773.944336,1635.987183 4788.092773,1625.827148 4804.572266,1620.021118 
	C4805.815430,1619.583374 4806.997070,1618.893799 4808.104980,1618.165527 
	C4848.796387,1591.413330 4893.387695,1571.633423 4935.276367,1547.023315 
	C4935.850586,1546.685913 4936.399414,1546.298950 4936.992676,1545.999390 
	C4986.873047,1520.803101 5036.731445,1495.564209 5086.653809,1470.452148 
	C5102.109375,1462.677734 5117.694824,1455.157227 5133.300781,1447.686768 
	C5153.700684,1437.921265 5174.162598,1428.283691 5194.631836,1418.663574 
	C5208.479004,1412.155762 5222.413574,1405.832031 5236.260254,1399.322021 
	C5261.529297,1387.440918 5286.557617,1375.189819 5312.871094,1365.473999 
	C5335.281250,1357.199463 5356.569824,1345.889648 5378.361816,1335.938354 
	C5384.410645,1333.176270 5390.485352,1330.471069 5399.119629,1327.579590 
	C5403.603516,1326.207886 5405.515137,1324.996460 5407.426758,1323.784912 
	C5407.426758,1323.784790 5407.680664,1323.301025 5408.992188,1323.605469 
	C5412.037109,1322.775757 5413.770508,1321.641602 5415.503906,1320.507324 
	C5415.503906,1320.507202 5416.239746,1320.020874 5417.821777,1320.359863 
	C5422.088379,1319.349976 5424.773438,1318.000977 5427.458496,1316.652100 
	C5427.458496,1316.652222 5428.291504,1316.126343 5429.936523,1316.398804 
	C5434.235840,1315.174683 5436.890137,1313.678101 5439.544922,1312.181396 
	C5439.544922,1312.181396 5439.952637,1311.699341 5441.297852,1311.967285 
	C5444.266113,1311.036987 5445.889160,1309.838867 5447.512695,1308.640625 
	C5447.512695,1308.640503 5448.243164,1308.080078 5449.868164,1308.303467 
	C5454.165039,1306.991211 5456.837402,1305.455688 5459.509766,1303.920044 
	C5459.509766,1303.920044 5459.786621,1303.438232 5461.110352,1303.735352 
	C5464.136719,1302.834839 5465.839844,1301.637085 5467.542969,1300.439331 
	C5467.542969,1300.439331 5468.133789,1299.927734 5469.516602,1300.183350 
	C5472.430176,1299.281128 5473.961426,1298.123413 5475.493164,1296.965820 
	C5475.493164,1296.965820 5476.400879,1296.314575 5478.252930,1296.479736 
	C5486.199707,1295.571411 5492.154297,1294.239258 5495.586914,1288.253662 
	C5495.586914,1288.253662 5496.007812,1287.756836 5497.360352,1288.021606 
	C5500.324219,1287.085083 5501.936035,1285.883911 5503.547363,1284.682617 
	C5503.547363,1284.682739 5504.281738,1284.111694 5506.049805,1284.338379 
	C5513.840820,1283.456787 5520.007812,1282.631714 5523.537598,1276.600830 
	C5523.537598,1276.600830 5524.286133,1276.073975 5525.878906,1276.434814 
	C5535.737305,1278.020752 5535.764648,1278.125122 5532.801270,1285.518799 
	C5532.576172,1286.080566 5532.437988,1286.677124 5532.258789,1287.257568 
	C5532.258789,1287.257446 5531.711426,1287.857178 5530.285156,1287.704834 
	C5527.342773,1288.802612 5525.826172,1290.052856 5524.309570,1291.302979 
	C5524.309570,1291.303101 5523.731934,1291.883667 5522.279297,1291.732178 
	C5519.244141,1292.857178 5517.661621,1294.133789 5516.079102,1295.410400 
	C5499.035645,1304.400269 5482.594727,1314.454834 5464.314453,1321.155640 
	C5454.419922,1324.782715 5445.497070,1331.046265 5436.099121,1336.050781 
	C5413.199219,1348.245483 5390.277344,1360.400024 5367.363770,1372.569580 
	C5362.070801,1375.380615 5356.697266,1378.049927 5351.494629,1381.019287 
	C5322.591797,1397.515259 5293.672363,1413.984619 5264.884766,1430.680420 
	C5254.522461,1436.690186 5244.507812,1443.299927 5234.340820,1449.645752 
	C5225.870605,1454.932617 5217.765625,1460.946533 5208.876953,1465.395874 
	C5181.962891,1478.868164 5157.816406,1496.679199 5132.669434,1512.924194 
	C5129.874023,1514.729980 5127.413086,1517.166870 5124.449219,1518.582153 
	C5087.562988,1536.194946 5056.874023,1563.496460 5021.885254,1584.124146 
	C5007.035156,1592.879272 4993.703125,1604.205078 4979.648438,1614.317749 
	C4975.327637,1617.427124 4970.916016,1620.411621 4966.519043,1623.413330 
	C4955.002930,1631.274170 4943.393066,1638.999512 4931.968262,1646.989990 
	C4918.887207,1656.138428 4905.977539,1665.531006 4892.963379,1674.774780 
	C4890.799316,1676.311768 4888.338379,1677.449585 4886.255859,1679.080200 
	C4864.265137,1696.301270 4842.323242,1713.584717 4819.190430,1731.777100 
	C4818.957031,1739.316162 4818.461426,1747.912842 4818.458008,1756.509888 
	C4818.374023,1951.759033 4818.332031,2147.008301 4818.308594,2342.257324 
	C4818.297852,2429.552979 4818.416992,2516.848633 4818.303223,2604.144287 
	C4818.282715,2620.124512 4817.633301,2636.113037 4816.895996,2652.080566 
	C4816.133301,2668.601807 4810.010254,2683.086182 4799.378418,2695.773193 
	C4785.623535,2712.186523 4771.890625,2728.560547 4747.615234,2735.443115 
	C4741.046875,2735.866211 4737.254395,2736.208740 4731.465820,2736.320312 
	C4725.478516,2736.022705 4721.487793,2735.897949 4717.496582,2735.897949 
	C4464.660645,2735.890625 4211.824707,2735.880127 3958.989014,2735.913574 
	C3932.375244,2735.916992 3905.760742,2736.124268 3879.147949,2736.366455 
	C3872.580566,2736.426270 3865.722168,2735.473389 3859.450684,2740.954346 
	C3859.087402,2742.530518 3859.257324,2743.206787 3859.427002,2743.882812 
z"/>
<path fill="#61ABC4" opacity="1.000000" stroke="none" 
	d="
M4429.329102,1594.367310 
	C4360.891113,1595.749268 4292.949219,1596.063965 4225.007812,1596.066162 
	C3438.899658,1596.091431 2652.791260,1596.064209 1866.683105,1596.073853 
	C1820.050659,1596.074463 1773.418335,1596.271606 1724.817383,1596.038086 
	C1729.464355,1591.498901 1736.934814,1592.167603 1744.216797,1592.114746 
	C1764.881592,1591.964844 1785.547729,1591.938599 1806.213257,1591.939209 
	C2660.172852,1591.959717 3514.132568,1591.990356 4368.092285,1592.004028 
	C4384.090820,1592.004395 4400.090332,1591.707642 4416.087891,1591.788696 
	C4420.669434,1591.811890 4425.246094,1592.676270 4429.329102,1594.367310 
z"/>
<path fill="#E3B1C8" opacity="1.000000" stroke="none" 
	d="
M1708.328613,2736.719238 
	C1735.122803,2735.989746 1763.061890,2736.090332 1791.000854,2736.093506 
	C2047.232544,2736.121826 2303.464111,2736.117432 2559.695801,2736.222412 
	C2567.555420,2736.225830 2575.414307,2737.313965 2581.451172,2739.103516 
	C2574.297852,2740.255371 2568.966553,2740.152344 2563.635498,2740.151367 
	C2285.734375,2740.103027 2007.833130,2740.060791 1729.932007,2740.046387 
	C1726.612061,2740.046143 1723.292236,2740.412109 1719.972290,2740.606689 
	C1716.472656,2739.572510 1712.973145,2738.538330 1708.328613,2736.719238 
z"/>
<path fill="#4F3370" opacity="1.000000" stroke="none" 
	d="
M3861.338379,2743.938477 
	C3859.257324,2743.206787 3859.087402,2742.530518 3861.324219,2741.076660 
	C3906.325439,2740.177246 3948.919922,2739.955811 3991.514160,2739.950195 
	C4227.115723,2739.919678 4462.717285,2739.949951 4698.318848,2739.921631 
	C4709.628906,2739.920410 4720.938965,2739.564453 4732.126465,2739.793457 
	C4732.003906,2740.213623 4732.244141,2741.055176 4732.244141,2741.055176 
	C4724.125488,2745.397949 4715.294434,2743.914062 4706.730957,2743.919189 
	C4552.825684,2744.010498 4398.919922,2744.004639 4245.014648,2744.008057 
	C4117.759766,2744.010986 3990.504639,2743.999268 3861.338379,2743.938477 
z"/>
<path fill="#453370" opacity="1.000000" stroke="none" 
	d="
M1721.401489,2741.431152 
	C1723.292236,2740.412109 1726.612061,2740.046143 1729.932007,2740.046387 
	C2007.833130,2740.060791 2285.734375,2740.103027 2563.635498,2740.151367 
	C2568.966553,2740.152344 2574.297852,2740.255371 2581.446289,2740.170898 
	C2584.093506,2741.305908 2583.959229,2742.469482 2581.967285,2743.833984 
	C2303.570801,2744.102295 2026.067749,2744.074219 1748.564819,2743.941162 
	C1739.986572,2743.937012 1731.408691,2742.842041 1721.401489,2741.431152 
z"/>
<path fill="#CACCDB" opacity="1.000000" stroke="none" 
	d="
M5533.642090,1287.095825 
	C5532.437988,1286.677124 5532.576172,1286.080566 5532.801270,1285.518799 
	C5535.764648,1278.125122 5535.737305,1278.020752 5526.333984,1276.481445 
	C5526.241211,1275.353027 5527.166016,1274.229858 5528.348633,1273.770020 
	C5560.575195,1261.237915 5592.828613,1248.773438 5627.648438,1236.293457 
	C5632.129883,1237.439575 5634.039551,1238.589722 5635.949707,1239.739990 
	C5611.573730,1251.799683 5587.805664,1265.093018 5561.902832,1273.967773 
	C5552.559570,1277.168945 5543.962402,1282.548584 5533.642090,1287.095825 
z"/>
<path fill="#9EA1BD" opacity="1.000000" stroke="none" 
	d="
M5637.308105,1239.560791 
	C5634.039551,1238.589722 5632.129883,1237.439575 5629.115723,1235.973022 
	C5637.294434,1229.279053 5647.528809,1225.761230 5661.973633,1222.871216 
	C5654.301758,1233.236084 5645.797363,1235.318848 5637.308105,1239.560791 
z"/>
<path fill="#CACCDB" opacity="1.000000" stroke="none" 
	d="
M5522.260742,1276.490479 
	C5520.007812,1282.631714 5513.840820,1283.456787 5506.514648,1284.358643 
	C5510.468750,1281.561401 5515.726562,1278.970703 5522.260742,1276.490479 
z"/>
<path fill="#CACCDB" opacity="1.000000" stroke="none" 
	d="
M5494.300293,1288.173828 
	C5492.154297,1294.239258 5486.199707,1295.571411 5478.811035,1296.451416 
	C5482.682617,1293.536621 5487.848145,1290.815430 5494.300293,1288.173828 
z"/>
<path fill="#3D437C" opacity="1.000000" stroke="none" 
	d="
M2057.771729,4157.400391 
	C2059.367188,4156.928223 2060.321777,4157.385254 2062.796875,4157.387695 
	C2064.284424,4158.165039 2064.686279,4159.663086 2064.128662,4160.573242 
	C2062.974365,4162.458008 2061.065918,4165.622070 2059.900391,4165.442871 
	C2055.888184,4164.826660 2056.188232,4161.478027 2057.771729,4157.400391 
z"/>
<path fill="#8F93B3" opacity="1.000000" stroke="none" 
	d="
M4733.461426,2736.551270 
	C4737.254395,2736.208740 4741.046875,2735.866211 4746.224609,2735.806152 
	C4743.384277,2737.581787 4739.160156,2739.074951 4733.589844,2740.811768 
	C4732.244141,2741.055176 4732.003906,2740.213623 4732.438477,2739.092285 
	C4732.872559,2737.971191 4733.461426,2736.551270 4733.461426,2736.551270 
z"/>
<path fill="#CACCDB" opacity="1.000000" stroke="none" 
	d="
M5426.336426,1316.465332 
	C5424.773438,1318.000977 5422.088379,1319.349976 5418.258789,1320.418701 
	C5419.814453,1318.851807 5422.514160,1317.565186 5426.336426,1316.465332 
z"/>
<path fill="#CACCDB" opacity="1.000000" stroke="none" 
	d="
M5438.397461,1312.040894 
	C5436.890137,1313.678101 5434.235840,1315.174683 5430.427734,1316.433838 
	C5431.932617,1314.764404 5434.591309,1313.332397 5438.397461,1312.040894 
z"/>
<path fill="#CACCDB" opacity="1.000000" stroke="none" 
	d="
M5458.335938,1303.767090 
	C5456.837402,1305.455688 5454.165039,1306.991211 5450.328125,1308.324219 
	C5451.829590,1306.619141 5454.496094,1305.116699 5458.335938,1303.767090 
z"/>
<path fill="#CACCDB" opacity="1.000000" stroke="none" 
	d="
M5502.530273,1284.531738 
	C5501.936035,1285.883911 5500.324219,1287.085083 5497.677734,1288.092407 
	C5498.266602,1286.725952 5499.889648,1285.553467 5502.530273,1284.531738 
z"/>
<path fill="#CACCDB" opacity="1.000000" stroke="none" 
	d="
M5525.303711,1291.392456 
	C5525.826172,1290.052856 5527.342773,1288.802612 5529.879395,1287.700195 
	C5529.365723,1289.059448 5527.832031,1290.270752 5525.303711,1291.392456 
z"/>
<path fill="#8F93B3" opacity="1.000000" stroke="none" 
	d="
M3040.390137,4124.763672 
	C3041.767578,4125.654785 3042.888672,4127.751953 3043.767334,4131.060547 
	C3042.394531,4130.171875 3041.264160,4128.070801 3040.390137,4124.763672 
z"/>
<path fill="#8F93B3" opacity="1.000000" stroke="none" 
	d="
M2184.666016,3754.944824 
	C2184.338867,3753.498779 2184.900879,3751.264648 2186.427734,3748.326660 
	C2186.780029,3749.800781 2186.167480,3751.978760 2184.666016,3754.944824 
z"/>
<path fill="#8F93B3" opacity="1.000000" stroke="none" 
	d="
M2189.242676,3743.356934 
	C2188.752441,3741.870117 2189.160645,3739.550537 2190.479980,3736.419678 
	C2190.974121,3737.913574 2190.557617,3740.218994 2189.242676,3743.356934 
z"/>
<path fill="#9EA1BD" opacity="1.000000" stroke="none" 
	d="
M2174.525391,3500.404785 
	C2174.980713,3501.894043 2174.494385,3504.164551 2173.138916,3507.279785 
	C2172.707764,3505.811768 2173.145752,3503.499023 2174.525391,3500.404785 
z"/>
<path fill="#9EA1BD" opacity="1.000000" stroke="none" 
	d="
M2178.640625,3488.479980 
	C2179.092285,3489.962402 2178.631104,3492.251221 2177.269287,3495.357910 
	C2176.822021,3493.879639 2177.275146,3491.583008 2178.640625,3488.479980 
z"/>
<path fill="#9EA1BD" opacity="1.000000" stroke="none" 
	d="
M2182.696777,3476.521973 
	C2183.147705,3477.997314 2182.707520,3480.297119 2181.356445,3483.409180 
	C2180.899170,3481.929443 2181.352539,3479.638184 2182.696777,3476.521973 
z"/>
<path fill="#9EA1BD" opacity="1.000000" stroke="none" 
	d="
M2186.533691,3464.414062 
	C2187.034424,3465.906982 2186.628662,3468.222412 2185.328857,3471.377197 
	C2184.832520,3469.889893 2185.229980,3467.562988 2186.533691,3464.414062 
z"/>
<path fill="#CACCDB" opacity="1.000000" stroke="none" 
	d="
M5517.108398,1295.490479 
	C5517.661621,1294.133789 5519.244141,1292.857178 5521.870117,1291.719727 
	C5521.321777,1293.096069 5519.729492,1294.333252 5517.108398,1295.490479 
z"/>
<path fill="#CACCDB" opacity="1.000000" stroke="none" 
	d="
M5474.528809,1296.828003 
	C5473.961426,1298.123413 5472.430176,1299.281128 5469.904297,1300.231567 
	C5470.460938,1298.912964 5472.012695,1297.801636 5474.528809,1296.828003 
z"/>
<path fill="#CACCDB" opacity="1.000000" stroke="none" 
	d="
M5466.480957,1300.283081 
	C5465.839844,1301.637085 5464.136719,1302.834839 5461.366699,1303.841553 
	C5462.006348,1302.476196 5463.712402,1301.301514 5466.480957,1300.283081 
z"/>
<path fill="#CACCDB" opacity="1.000000" stroke="none" 
	d="
M5446.492188,1308.493530 
	C5445.889160,1309.838867 5444.266113,1311.036987 5441.604004,1312.042969 
	C5442.200684,1310.682495 5443.835938,1309.514404 5446.492188,1308.493530 
z"/>
<path fill="#CACCDB" opacity="1.000000" stroke="none" 
	d="
M5414.441895,1320.309326 
	C5413.770508,1321.641602 5412.037109,1322.775757 5409.244141,1323.711182 
	C5409.916504,1322.378784 5411.647949,1321.245117 5414.441895,1320.309326 
z"/>
<path fill="#CACCDB" opacity="1.000000" stroke="none" 
	d="
M5406.255859,1323.645630 
	C5405.515137,1324.996460 5403.603516,1326.207886 5400.545898,1327.254761 
	C5401.295898,1325.895508 5403.190430,1324.700928 5406.255859,1323.645630 
z"/>
<path fill="#9EA1BD" opacity="1.000000" stroke="none" 
	d="
M2190.073730,3451.877930 
	C2190.865479,3452.609619 2190.796143,3453.949707 2189.865234,3455.897949 
	C2189.073242,3455.166504 2189.143066,3453.826416 2190.073730,3451.877930 
z"/>
<path fill="#9EA1BD" opacity="1.000000" stroke="none" 
	d="
M2194.624512,3436.180664 
	C2195.346680,3436.877930 2195.259277,3438.192627 2194.315918,3440.075928 
	C2193.578369,3439.362305 2193.696533,3438.080078 2194.624512,3436.180664 
z"/>
<path fill="#9EA1BD" opacity="1.000000" stroke="none" 
	d="
M2150.448242,3576.076172 
	C2151.206543,3576.789062 2151.130371,3578.116211 2150.196533,3580.029053 
	C2149.430664,3579.306641 2149.522217,3577.998291 2150.448242,3576.076172 
z"/>
<path fill="#9EA1BD" opacity="1.000000" stroke="none" 
	d="
M2145.926270,3591.811523 
	C2146.707275,3592.537598 2146.623047,3593.865479 2145.700684,3595.819092 
	C2144.928711,3595.101074 2144.994873,3593.757080 2145.926270,3591.811523 
z"/>
<path fill="#9EA1BD" opacity="1.000000" stroke="none" 
	d="
M2097.915527,3799.856445 
	C2098.779297,3800.539795 2098.812256,3801.885742 2098.025391,3803.899902 
	C2097.165527,3803.218262 2097.125000,3801.868408 2097.915527,3799.856445 
z"/>
<path fill="#9EA1BD" opacity="1.000000" stroke="none" 
	d="
M2094.114258,3819.950684 
	C2094.984619,3820.617676 2095.037109,3821.958252 2094.283203,3823.970703 
	C2093.416504,3823.302979 2093.356445,3821.963867 2094.114258,3819.950684 
z"/>
<path fill="#EBC2D4" opacity="1.000000" stroke="none" 
	d="
M4731.465820,2736.320312 
	C4733.461426,2736.551270 4732.872559,2737.971191 4732.560547,2738.672363 
	C4720.938965,2739.564453 4709.628906,2739.920410 4698.318848,2739.921631 
	C4462.717285,2739.949951 4227.115723,2739.919678 3991.514160,2739.950195 
	C3948.919922,2739.955811 3906.325439,2740.177246 3861.857422,2740.176758 
	C3865.722168,2735.473389 3872.580566,2736.426270 3879.147949,2736.366455 
	C3905.760742,2736.124268 3932.375244,2735.916992 3958.989014,2735.913574 
	C4211.824707,2735.880127 4464.660645,2735.890625 4717.496582,2735.897949 
	C4721.487793,2735.897949 4725.478516,2736.022705 4731.465820,2736.320312 
z"/>
</svg>