<svg version="1.1" id="Layer_1" xmlns="http://www.w3.org/2000/svg" xmlns:xlink="http://www.w3.org/1999/xlink" x="0px" y="0px"
	 width="100%" viewBox="0 0 650 599" enable-background="new 0 0 650 599" xml:space="preserve">


<path fill="#2C3370" opacity="1.000000" stroke="none" 
	d="
M0.999999,75.468658 
	C2.615375,73.218925 4.278375,71.478401 5.836437,69.648529 
	C9.320531,65.556602 13.774015,63.967716 19.070477,63.976456 
	C50.402729,64.028145 81.735115,64.000038 113.067451,63.999973 
	C222.397308,63.999733 331.727173,63.999981 441.057037,64.000046 
	C443.303864,64.000046 445.550659,64.000038 447.797485,64.000038 
	C447.934479,64.481438 448.071472,64.962830 448.208496,65.444229 
	C442.823456,68.432983 437.481689,71.502991 432.046509,74.397530 
	C392.298676,95.565514 354.442627,119.799561 318.344391,146.618942 
	C297.203430,162.325714 276.832611,179.190247 257.129150,196.676331 
	C237.729523,213.892792 219.002121,231.970932 201.084869,250.726700 
	C179.530777,273.289490 160.065140,297.710876 142.279388,323.405670 
	C121.148094,353.933716 103.019211,386.126801 89.235245,420.640961 
	C81.235764,440.671204 75.076828,461.299103 71.007256,482.515961 
	C70.825089,483.465729 70.495087,484.393982 70.152382,485.301483 
	C70.059105,485.548553 69.667938,485.683105 68.556252,486.496552 
	C73.271111,400.320587 98.019859,322.111420 152.171036,252.998962 
	C148.920883,252.998962 147.007645,252.998962 145.094406,252.998962 
	C105.095673,252.998886 65.094818,252.776306 25.099728,253.158234 
	C15.339796,253.251434 6.987034,252.108612 1.353030,242.955414 
	C1.000000,187.312439 1.000000,131.624878 0.999999,75.468658 
z"/>
<path fill="#2C3370" opacity="1.000000" stroke="none" 
	d="
M651.000000,2.499996 
	C646.865662,4.581401 642.490845,5.720519 638.636536,7.816811 
	C615.628662,20.330423 592.260498,32.281952 569.959473,45.964256 
	C550.925476,57.642136 533.203247,71.450958 514.804199,84.177444 
	C511.308594,86.595299 509.899750,89.356270 509.913025,93.687897 
	C510.056793,140.501190 509.672852,187.319031 510.232239,234.126068 
	C510.372864,245.892960 501.790833,253.366470 491.361877,253.229095 
	C449.220154,252.673920 407.066864,252.982300 364.917847,253.012527 
	C356.142090,253.018829 357.014679,252.177567 357.013062,261.204132 
	C356.992920,373.823639 356.999634,486.443176 356.999725,599.531372 
	C355.285645,600.000000 353.571289,600.000000 351.428467,600.000000 
	C349.659882,599.033752 348.455353,597.663208 346.959412,597.161499 
	C322.046844,588.805481 298.843964,576.977356 278.461365,560.494324 
	C249.084946,536.738098 230.071533,506.272369 223.028061,468.787506 
	C216.133469,432.094940 221.592957,396.553711 233.234268,361.661224 
	C245.841476,323.873688 265.365845,289.745270 288.764008,257.683075 
	C303.362701,237.678650 318.842438,218.398193 336.547974,201.073563 
	C353.137573,184.840836 370.104156,168.981430 387.217133,153.298492 
	C409.884949,132.524887 434.808289,114.567421 460.415802,97.715118 
	C481.729156,83.688766 503.716522,70.594055 526.006958,58.165760 
	C563.266846,37.391064 602.011719,19.658154 641.914124,4.501852 
	C643.714111,3.818147 645.336853,2.667830 647.021118,1.367415 
	C648.333313,1.333323 649.666687,1.666657 651.000000,2.499996 
z"/>
</svg>